<?xml version="1.0" encoding="utf-8"?>
<!-- Generator: Adobe Illustrator 19.2.1, SVG Export Plug-In . SVG Version: 6.00 Build 0)  -->
<svg version="1.1" id="Layer_1" xmlns="http://www.w3.org/2000/svg" xmlns:xlink="http://www.w3.org/1999/xlink" x="0px" y="0px"
	 viewBox="0 0 350 100" style="enable-background:new 0 0 350 100;" xml:space="preserve">
<style type="text/css">
	.st0{fill:#404344;}
	.st1{fill:#37B34A;}
</style>
<g>
	<path class="st0" d="M140.3,21.1c0-8.1,3.4-15,13.1-15c9.7,0,13.1,6.9,13.1,15c0,8.1-3.3,15-13.1,15
		C143.6,36.1,140.3,29.2,140.3,21.1 M146.4,21.1c0,4.7,1,9.2,7,9.2c6,0,7-4.5,7-9.2c0-4.7-1-9.2-7-9.2
		C147.4,11.8,146.4,16.3,146.4,21.1 M294.1,6.8l5.3,8.9l5.3-8.9h7.2l-8.7,13.7l9.4,14.9h-7.2l-6.1-10.1l-6.1,10.1h-7.2l9.4-14.9
		l-8.7-13.7H294.1z M267.7,18.1h11.3v5.6h-11.3v6H281v5.8h-19.4V6.8H281v5.8h-13.3V18.1z M241.8,35.4V12.5h-7.9V6.8h21.9v5.8h-7.9
		v22.9H241.8z M210.2,35.4h-5.8V6.8h6.1v17.6l11.3-17.6h5.8v28.6h-6.1V17.8L210.2,35.4z M170,29.8c2.5,0.1,4.2-1,4.8-3.3
		c1.7-6.2,1.9-13.2,2.7-19.7H196v28.6h-6.1V12.5H183c-0.4,4-1.1,11-2.3,15.3c-1.3,4.9-5.3,8-10.8,7.7V29.8z M111.1,35.4V6.8h22.4
		v28.6h-6.1V12.5h-10.1v22.9H111.1z"/>
	<path class="st0" d="M170.3,71.8h-1.6l-2-3.2l-2,3.2h-1.6l2.9-4.2l-2.9-4h1.6l2,3l2-3h1.6l-2.9,4L170.3,71.8z M221.5,45.2l-3.6,10
		c-0.5,1.3-1.3,2.1-2.6,2.2c-0.4,0-0.7,0-1.1-0.1l0-1.3c0.4,0.1,0.9,0.2,1.2,0.2c0.7-0.1,1.1-0.6,1.3-1.3l0.5-1.3l-3.4-8.3h1.4
		l2.6,6.6l2.4-6.6L221.5,45.2L221.5,45.2z M203.9,90.1h-1.7l-2.9-3.7h-0.8v3.7h-1.3v-8.3h1.3v3.5h0.8l2.7-3.5h1.6l-3.3,4L203.9,90.1
		z M223,71.8h-1.7l-2.9-3.7h-0.8v3.7h-1.3v-8.3h1.3V67h0.8l2.7-3.5h1.6l-3.3,4L223,71.8z M146.1,53.5h-1.7l-2.9-3.7h-0.8v3.7h-1.3
		v-8.3h1.3v3.5h0.8l2.7-3.5h1.6l-3.3,4L146.1,53.5z M206.5,49.3c0-1.1,0.8-2.7,2.7-2.7c1.9,0,2.4,1.1,2.4,2.9c0,1.8-0.8,3-2.6,3
		C207.1,52.5,206.5,51,206.5,49.3z M206.4,46.7c0.2-1.3,0.7-2.4,1.6-3c0.8-0.5,1.8-0.7,2.8-1c1-0.3,1.4-0.9,1.5-1.8h-1.3
		c0,0.2-0.1,0.7-0.7,0.9c-1,0.3-2,0.4-2.8,1c-2.1,1.3-2.4,3.8-2.3,6.1c0.1,2.5,1.2,4.8,3.9,4.8c2.5,0,4-1.6,4-4.2s-1.2-4.1-3.7-4.1
		C208.2,45.4,207,46,206.4,46.7 M112.1,47.7c0-2.8,1.2-4.6,4.1-4.6c1,0,2.1,0.2,2.9,0.4l0.1-1.4c-0.9-0.2-1.9-0.4-2.9-0.4
		c-3.7,0-5.7,2.3-5.7,6c0,3.7,2,6,5.7,6c1,0,2-0.1,2.9-0.4l-0.1-1.4c-0.8,0.3-1.9,0.4-2.9,0.4C113.3,52.3,112.1,50.5,112.1,47.7
		L112.1,47.7z M236,60.9c0.4,0.5,1,0.8,1.6,0.8c0.6,0,1.2-0.3,1.6-0.8l0.7,0.6c-0.6,0.8-1.4,1.1-2.4,1.1c-0.9,0-1.8-0.3-2.4-1.1
		L236,60.9z M235.5,71.8h-1.4v-8.3h1.2v6.6c0.2-0.5,0.6-1,0.9-1.5l3.5-5.1h1.4v8.3h-1.2v-6.6c-0.2,0.5-0.6,1-0.9,1.5L235.5,71.8z
		 M225.9,71.8h-1.4v-8.3h1.2v6.6c0.2-0.5,0.6-1,0.9-1.5l3.5-5.1h1.4v8.3h-1.2v-6.6c-0.2,0.5-0.6,1-0.9,1.5L225.9,71.8z M182.6,71.8
		h-1.4v-8.3h1.2v6.6c0.2-0.5,0.6-1,0.9-1.5l3.5-5.1h1.4v8.3H187v-6.6c-0.2,0.5-0.6,1-0.9,1.5L182.6,71.8z M312.3,71.8H311v-8.3h1.2
		v6.6c0.2-0.5,0.6-1,0.9-1.5l3.5-5.1h1.4v8.3h-1.2v-6.6c-0.2,0.5-0.6,1-0.9,1.5L312.3,71.8z M303,67.7c0-3,1.8-4.3,4.2-4.4
		c0.6,0,1.4,0.1,2,0.3l-0.1,1.2c-0.6-0.2-1.5-0.3-2.1-0.3c-1.5,0.1-2.6,1-2.6,3.2c0,2.2,1.1,3.1,2.6,3.2c0.6,0,1.4,0,2.1-0.2
		l0.1,1.2c-0.6,0.2-1.5,0.2-2,0.2C304.7,72,303,70.7,303,67.7L303,67.7z M208.3,67.7c0-3,1.8-4.3,4.2-4.4c0.6,0,1.4,0.1,2,0.3
		l-0.1,1.2c-0.6-0.2-1.5-0.3-2.1-0.3c-1.5,0.1-2.6,1-2.6,3.2c0,2.2,1.1,3.1,2.6,3.2c0.6,0,1.4,0,2.1-0.2l0.1,1.2
		c-0.6,0.2-1.5,0.2-2,0.2C210.1,72,208.3,70.7,208.3,67.7L208.3,67.7z M238.2,49.4c0-3,1.8-4.3,4.2-4.4c0.6,0,1.4,0.1,2,0.3
		l-0.1,1.2c-0.6-0.2-1.5-0.3-2.1-0.3c-1.5,0.1-2.6,1-2.6,3.2s1.1,3.1,2.6,3.2c0.6,0,1.4,0,2.1-0.2l0.1,1.2c-0.6,0.2-1.5,0.2-2,0.2
		C240,53.7,238.2,52.4,238.2,49.4L238.2,49.4z M185.1,90.1h-1.3V83h-2.4c-0.2,2.7-0.5,4.6-1,5.7c-0.5,1.1-1.2,1.6-2.6,1.4v-1.2
		c0.6,0.1,1.2-0.1,1.5-0.9c0.5-1.1,0.7-3.2,0.9-6.2h4.9V90.1z M121.9,67.7c0-1.8,0.6-3.1,2.6-3.1c1.9,0,2.6,1.4,2.6,3.1
		c0,1.8-0.6,3.1-2.6,3.1C122.6,70.8,121.9,69.5,121.9,67.7 M128.4,67.7c0-2.6-1.3-4.3-3.9-4.3s-3.9,1.7-3.9,4.3
		c0,2.6,1.3,4.3,3.9,4.3S128.4,70.3,128.4,67.7 M221.3,86c0-1.8,0.6-3.1,2.6-3.1c1.9,0,2.6,1.4,2.6,3.1c0,1.8-0.6,3.1-2.6,3.1
		C221.9,89.2,221.3,87.8,221.3,86 M227.7,86c0-2.6-1.3-4.3-3.9-4.3c-2.6,0-3.9,1.7-3.9,4.3c0,2.6,1.3,4.3,3.9,4.3
		C226.4,90.3,227.7,88.6,227.7,86 M205.9,86c0-1.8,0.6-3.1,2.6-3.1c1.9,0,2.6,1.4,2.6,3.1c0,1.8-0.6,3.1-2.6,3.1
		C206.5,89.2,205.9,87.8,205.9,86 M212.3,86c0-2.6-1.3-4.3-3.9-4.3c-2.6,0-3.9,1.7-3.9,4.3c0,2.6,1.3,4.3,3.9,4.3
		C211,90.3,212.3,88.6,212.3,86 M136.7,53.5h-1.3v-3.8h-4.2v3.8h-1.3v-8.3h1.3v3.4h4.2v-3.4h1.3V53.5z M152.8,46.3h-2.5v7.1H149
		v-7.1h-2.5v-1.1h6.3V46.3z M157.7,49.9h-4.4v-1.2h4.4V49.9z M169.2,53.5h-1.4V43.2h-6v10.3h-1.4V41.9h8.8V53.5z M185.8,46.3h-2.5
		v7.1H182v-7.1h-2.5v-1.1h6.3V46.3z M237.7,46.3h-3.6v7.1h-1.3v-8.3h4.9V46.3z M253,53.5h-1.7l-2.9-3.7h-0.8v3.7h-1.3v-8.3h1.3v3.5
		h0.8l2.7-3.5h1.6l-3.3,4L253,53.5z M136.6,71.8h-1.3v-7.1h-2.4c-0.2,2.7-0.5,4.6-1,5.7c-0.5,1.1-1.2,1.6-2.6,1.4v-1.2
		c0.6,0.1,1.2-0.1,1.6-0.9c0.5-1.1,0.7-3.2,0.9-6.2h4.9V71.8z M154.2,64.7h-2.5v7.1h-1.3v-7.1h-2.5v-1.1h6.3V64.7z M178.6,71.8h-1.3
		v-3.8H173v3.8h-1.3v-8.3h1.3v3.4h4.2v-3.4h1.3V71.8z M197.3,71.8h-1.3v-3.2c-0.6,0.3-1.5,0.4-2.4,0.4c-1.5-0.1-2.8-0.8-2.8-2.9
		v-2.5h1.3V66c0,1.4,0.8,1.8,1.9,1.8c0.7,0,1.5-0.2,2-0.4v-3.9h1.3V71.8L197.3,71.8z M264.1,71.8h-1.3v-3.8h-4.2v3.8h-1.3v-8.3h1.3
		v3.4h4.2v-3.4h1.3V71.8z M276.4,71.8v-8.3h3.6c1.3,0,2.5,0.6,2.5,2c0,1.1-0.5,1.7-1.4,2c1.2,0.2,1.7,0.8,1.7,1.9
		c0,1.5-1.2,2.4-2.6,2.4H276.4z M277.7,64.7V67h2c1.1,0,1.5-0.4,1.5-1.2c0-0.7-0.4-1.1-1.4-1.1H277.7z M277.7,68.1v2.6h2.3
		c1.1,0,1.5-0.4,1.5-1.3c0-0.8-0.5-1.3-1.7-1.3H277.7z M325.8,64.7h-2.5v7.1H322v-7.1h-2.5v-1.1h6.3L325.8,64.7L325.8,64.7z
		 M340.9,64.7h-2.5v7.1h-1.3v-7.1h-2.5v-1.1h6.3V64.7z M120.1,90.1h-1.4V79.8h-6v10.3h-1.4V78.6h8.8V90.1z M136.7,83h-2.5v7.1h-1.3
		V83h-2.5v-1.1h6.3V83z M160.6,90.1V78.6h4.1c1.9,0,3.2,1,3.2,3c0,1.1-0.6,2-1.6,2.4v0c1.3,0.3,2.1,1.5,2.1,2.8
		c0,2.1-1.6,3.3-3.6,3.3L160.6,90.1L160.6,90.1z M161.9,79.8v3.7h2.2c1.3,0,2.3-0.6,2.3-2.1c0-1.1-0.6-1.7-2.1-1.7H161.9z
		 M161.9,84.8v4.2h2.6c1.4,0,2.4-0.6,2.4-2.1c0-1.4-0.8-2.1-2.7-2.1H161.9z M219.4,83h-3.3v7.1h-1.3v-8.3h4.6V83z M178.7,49.8h-6.1
		c0,2,1.2,2.8,2.8,2.8c0.9,0,1.9-0.2,2.7-0.6l0,1.3c-0.8,0.4-2,0.5-2.8,0.5c-2.2,0-4-1.4-4-4.3c0-2.4,1.3-4.4,3.8-4.4
		C177.8,45,178.8,46.8,178.7,49.8L178.7,49.8z M177.4,48.6c0-1.6-0.9-2.5-2.2-2.5c-1.6,0-2.4,1-2.5,2.5H177.4z M193.9,49.8h-6.1
		c0,2,1.2,2.8,2.8,2.8c0.9,0,1.9-0.2,2.7-0.6l0,1.3c-0.8,0.4-2,0.5-2.8,0.5c-2.2,0-4-1.4-4-4.3c0-2.4,1.3-4.4,3.8-4.4
		C193,45,194,46.8,193.9,49.8z M192.5,48.6c0-1.6-0.9-2.5-2.2-2.5c-1.6,0-2.4,1-2.5,2.5H192.5z M333.8,68.1h-6.1
		c0,2,1.2,2.8,2.8,2.8c0.9,0,1.9-0.2,2.7-0.6l0,1.3c-0.8,0.4-2,0.5-2.8,0.5c-2.2,0-4-1.4-4-4.3c0-2.4,1.3-4.4,3.8-4.4
		C332.9,63.3,333.9,65.2,333.8,68.1L333.8,68.1z M332.4,67c0-1.6-0.9-2.5-2.2-2.5c-1.6,0-2.4,1-2.5,2.5H332.4z M291.9,68.1h-6.1
		c0,2,1.2,2.8,2.8,2.8c0.9,0,1.9-0.2,2.7-0.6l0,1.3c-0.8,0.4-2,0.5-2.8,0.5c-2.2,0-4-1.4-4-4.3c0-2.4,1.3-4.4,3.8-4.4
		C291,63.3,292,65.2,291.9,68.1L291.9,68.1z M290.5,67c0-1.6-0.9-2.5-2.2-2.5c-1.6,0-2.4,1-2.5,2.5H290.5z M207,68.1h-6.1
		c0,2,1.2,2.8,2.8,2.8c0.9,0,1.9-0.2,2.7-0.6l0,1.3c-0.8,0.4-2,0.5-2.8,0.5c-2.2,0-4-1.4-4-4.3c0-2.4,1.3-4.4,3.8-4.4
		C206,63.3,207,65.2,207,68.1L207,68.1z M205.6,67c0-1.6-0.9-2.5-2.2-2.5c-1.6,0-2.4,1-2.5,2.5H205.6z M162.2,68.1h-6.1
		c0,2,1.2,2.8,2.8,2.8c0.9,0,1.9-0.2,2.7-0.6l0,1.3c-0.8,0.4-2,0.5-2.8,0.5c-2.2,0-4-1.4-4-4.3c0-2.4,1.3-4.4,3.8-4.4
		C161.3,63.3,162.3,65.2,162.2,68.1L162.2,68.1z M160.9,67c0-1.6-0.9-2.5-2.2-2.5c-1.6,0-2.4,1-2.5,2.5H160.9z M129.6,86.4h-6.1
		c0,2,1.2,2.8,2.8,2.8c0.9,0,1.9-0.2,2.7-0.6l0,1.3c-0.8,0.4-2,0.5-2.8,0.5c-2.2,0-4-1.4-4-4.3c0-2.4,1.3-4.4,3.8-4.4
		C128.7,81.7,129.7,83.5,129.6,86.4L129.6,86.4z M128.3,85.3c0-1.6-0.9-2.5-2.2-2.5c-1.6,0-2.4,1-2.5,2.5H128.3z M177.1,86.4H171
		c0,2,1.2,2.8,2.8,2.8c0.9,0,1.8-0.2,2.5-0.6l0,1.3c-0.8,0.4-1.8,0.5-2.6,0.5c-2.2,0-4-1.4-4-4.3c0-2.4,1.3-4.4,3.8-4.4
		C176.2,81.7,177.2,83.5,177.1,86.4L177.1,86.4z M175.7,85.3c0-1.6-0.9-2.5-2.2-2.5c-1.6,0-2.4,1-2.5,2.5H175.7z M268.2,71.8h-1.4
		v-8.3h1.2v6.5c0.2-0.5,0.5-0.9,0.8-1.4l3.5-5.2h1.4v8.3h-1.2v-6.5c-0.2,0.5-0.5,0.9-0.8,1.4L268.2,71.8z M265.9,42.5
		c0.4,0.5,1,0.8,1.6,0.8c0.6,0,1.2-0.3,1.6-0.8l0.7,0.6c-0.6,0.8-1.4,1.1-2.4,1.1c-0.9,0-1.8-0.3-2.4-1.1L265.9,42.5z M265.5,53.5
		h-1.4v-8.3h1.2v6.6c0.2-0.5,0.5-1,0.9-1.5l3.5-5.1h1.4v8.3h-1.2v-6.6c-0.2,0.5-0.6,1-0.9,1.5L265.5,53.5z M255.9,53.5h-1.4v-8.3
		h1.2v6.6c0.2-0.5,0.6-1,0.9-1.5l3.5-5.1h1.4v8.3h-1.2v-6.6c-0.2,0.5-0.6,1-0.9,1.5L255.9,53.5z M140.8,71.8h-1.4v-8.3h1.2v6.6
		c0.2-0.5,0.6-1,0.9-1.5l3.5-5.1h1.4v8.3h-1.2v-6.6c-0.2,0.5-0.6,1-0.9,1.5L140.8,71.8z M189,90.1h-1.4v-8.3h1.2v6.6
		c0.2-0.5,0.6-1,0.9-1.5l3.5-5.1h1.4v8.3h-1.2v-6.6c-0.2,0.5-0.6,1-0.9,1.5L189,90.1z M139.3,89.2V94H138V81.9h1.2l0.1,1.1
		c0.8-1,1.9-1.2,2.9-1.2c2.5,0.1,3.4,2.1,3.3,4.3c-0.1,2.3-1.2,4.3-3.8,4.3C140.4,90.3,139.6,89.6,139.3,89.2z M139.3,86.1
		c0,1.6,0.5,3.1,2.4,3.1c1.8,0,2.5-1.6,2.6-3.2c0.1-1.6-0.5-3.2-2.4-3.2C139.9,82.8,139.3,84.4,139.3,86.1z M295.1,70.9v4.7h-1.3
		V63.5h1.2l0.1,1.1c0.8-1,1.9-1.2,2.9-1.2c2.5,0.1,3.4,2.1,3.3,4.3c-0.1,2.3-1.2,4.3-3.8,4.3C296.2,72,295.4,71.3,295.1,70.9
		 M295.1,67.8c0,1.6,0.5,3.1,2.4,3.1c1.8,0,2.5-1.6,2.6-3.2c0.1-1.6-0.5-3.2-2.4-3.2C295.7,64.5,295.1,66.1,295.1,67.8 M224.4,52.5
		v4.7h-1.3V45.2h1.2l0.1,1.1c0.8-1,1.9-1.2,2.9-1.2c2.5,0.1,3.4,2.1,3.3,4.3c-0.1,2.3-1.2,4.3-3.8,4.3
		C225.4,53.7,224.7,52.9,224.4,52.5 M224.4,49.5c0,1.6,0.5,3.1,2.4,3.1c1.8,0,2.5-1.6,2.6-3.2c0.1-1.6-0.5-3.2-2.4-3.2
		C224.9,46.1,224.4,47.8,224.4,49.5z M197.1,52.5v4.7h-1.3V45.2h1.2l0.1,1.1c0.8-1,1.9-1.2,2.9-1.2c2.5,0.1,3.4,2.1,3.3,4.3
		c-0.1,2.3-1.2,4.3-3.8,4.3C198.1,53.7,197.4,52.9,197.1,52.5z M197.1,49.5c0,1.6,0.5,3.1,2.4,3.1c1.8,0,2.5-1.6,2.6-3.2
		c0.1-1.6-0.5-3.2-2.4-3.2C197.6,46.1,197.1,47.8,197.1,49.5 M151.8,86.1v0.7c0,1.3-0.9,2.4-2.3,2.4c-0.8,0-1.5-0.4-1.6-1.3
		C147.9,85.9,149.8,86.1,151.8,86.1z M147.2,82.1l0.1,1.3c0.7-0.3,1.7-0.5,2.7-0.5c1,0.1,1.9,0.4,1.9,1.8v0.4
		c-3-0.2-5.3,0.1-5.2,2.7c0,1.6,1.2,2.5,2.7,2.5c1.1,0,2-0.5,2.6-1.1l0.2,1h1.1l0-5.4c0-2.2-1.4-2.9-3.1-3
		C149.2,81.7,147.9,81.9,147.2,82.1L147.2,82.1z M126,49.5v0.7c0,1.3-0.9,2.4-2.3,2.4c-0.8,0-1.5-0.4-1.6-1.3
		C122.1,49.2,124,49.4,126,49.5z M121.4,45.5l0.1,1.3c0.7-0.3,1.7-0.5,2.7-0.5c1,0.1,1.9,0.4,1.9,1.8v0.4c-3-0.2-5.3,0.1-5.2,2.7
		c0,1.6,1.2,2.5,2.7,2.5c1.1,0,2-0.5,2.6-1.1l0.2,1h1.1l0-5.4c0-2.2-1.4-2.9-3.1-3C123.4,45,122.1,45.2,121.4,45.5"/>
	<polygon class="st0" points="118.2,71.8 116.9,71.8 116.9,64.9 112.6,64.9 112.6,71.8 111.3,71.8 111.3,63.6 118.2,63.6 	"/>
	<path class="st0" d="M255.7,63.6l-3.6,10c-0.5,1.3-1.3,2.1-2.6,2.2c-0.4,0-0.7,0-1.1-0.1l0-1.3c0.4,0.1,0.9,0.2,1.2,0.2
		c0.7-0.1,1.1-0.6,1.3-1.3l0.5-1.3l-3.4-8.3h1.4l2.6,6.6l2.4-6.6L255.7,63.6L255.7,63.6z"/>
	<path id="path3801_1_" class="st1" d="
		M51.4,7C44.1,7,32,7.3,25,8.2c-9.7,1.2-13.5,6.2-14.6,15.3c-0.8,7-1.4,17.1-1.4,26.5s0.2,19.6,1.4,26.6C12,85.6,16.3,90.4,25,91.8
		C32,93,44.8,93,51.4,93c6.6,0,19.4,0,26.4-1.2c8.8-1.4,12.9-6.2,14.6-15.3c1.2-6.9,1.4-17.6,1.4-26.6s-0.8-21-1.4-26.5
		c-1-9.4-5-14-14.6-15.3C70.8,7.2,58.8,7,51.4,7z M81.1,16.7c1.9,0.8,5.2,5.7,4.4,11c-3.7,2.9-8.1,5.1-12.3,5.7v34h12.6
		c0,5.2-0.8,9.4-1.7,10.9H61V34H44.9v26.5c0,13.3-7.5,19.9-17.1,19.9c-2.7,0-5.9-0.3-8.7-1.1c-1.3-1.7-1.9-6.9-2-13.3
		c6.4,3.1,15,4.5,15.7-5.5V35.6c-9.7,1.1-13.3,7.9-16.6,12.4c0.1-6.1,0.4-11.6,0.7-15.3c6.6-7.1,14.1-10.5,28.7-10.5h20.9
		C71.6,22.3,76.5,20.4,81.1,16.7z"/>
</g>
</svg>
